<svg width="283" height="72" viewBox="0 0 283 72" fill="none" xmlns="http://www.w3.org/2000/svg">
<rect x="6.27191" y="18.3246" width="5.13158" height="35.9211" fill="white"/>
<rect x="13.6842" y="16.2514" width="5.13158" height="52.5023" transform="rotate(-45 13.6842 16.2514)" fill="white"/>
<rect x="37.7548" y="34.6446" width="4.5614" height="26.012" transform="rotate(-135 37.7548 34.6446)" fill="white"/>
<ellipse cx="9.12281" cy="60.8026" rx="9.12281" ry="8.83772" fill="white"/>
<ellipse cx="9.12281" cy="11.1974" rx="9.12281" ry="8.83772" fill="white"/>
<ellipse cx="55.307" cy="57.3816" rx="9.12281" ry="8.83772" fill="white"/>
<ellipse cx="55.8772" cy="11.1974" rx="9.12281" ry="8.83772" fill="white"/>
<ellipse cx="35.9211" cy="33.7193" rx="5.70175" ry="5.13158" fill="white"/>
<path d="M106.968 53H100.248L85.032 30.008V53H78.312V19.448H85.032L100.248 42.488V19.448H106.968V53ZM138.329 39.128C138.329 40.088 138.265 40.952 138.137 41.72H118.697C118.857 43.64 119.529 45.144 120.713 46.232C121.897 47.32 123.353 47.864 125.081 47.864C127.577 47.864 129.353 46.792 130.409 44.648H137.657C136.889 47.208 135.417 49.32 133.241 50.984C131.065 52.616 128.393 53.432 125.225 53.432C122.665 53.432 120.361 52.872 118.313 51.752C116.297 50.6 114.713 48.984 113.561 46.904C112.441 44.824 111.881 42.424 111.881 39.704C111.881 36.952 112.441 34.536 113.561 32.456C114.681 30.376 116.249 28.776 118.265 27.656C120.281 26.536 122.601 25.976 125.225 25.976C127.753 25.976 130.009 26.52 131.993 27.608C134.009 28.696 135.561 30.248 136.649 32.264C137.769 34.248 138.329 36.536 138.329 39.128ZM131.369 37.208C131.337 35.48 130.713 34.104 129.497 33.08C128.281 32.024 126.793 31.496 125.033 31.496C123.369 31.496 121.961 32.008 120.809 33.032C119.689 34.024 119.001 35.416 118.745 37.208H131.369ZM151.058 31.928V44.792C151.058 45.688 151.266 46.344 151.682 46.76C152.13 47.144 152.866 47.336 153.89 47.336H157.01V53H152.786C147.122 53 144.29 50.248 144.29 44.744V31.928H141.122V26.408H144.29V19.832H151.058V26.408H157.01V31.928H151.058ZM186.803 58.904L181.715 52.808C180.307 53.16 178.867 53.336 177.395 53.336C174.259 53.336 171.379 52.6 168.755 51.128C166.131 49.656 164.051 47.624 162.515 45.032C160.979 42.408 160.211 39.448 160.211 36.152C160.211 32.888 160.979 29.96 162.515 27.368C164.051 24.744 166.131 22.696 168.755 21.224C171.379 19.752 174.259 19.016 177.395 19.016C180.563 19.016 183.443 19.752 186.035 21.224C188.659 22.696 190.723 24.744 192.227 27.368C193.763 29.96 194.531 32.888 194.531 36.152C194.531 39.128 193.891 41.848 192.611 44.312C191.363 46.744 189.651 48.728 187.475 50.264L195.155 58.904H186.803ZM167.123 36.152C167.123 38.392 167.555 40.36 168.419 42.056C169.283 43.752 170.483 45.064 172.019 45.992C173.587 46.888 175.379 47.336 177.395 47.336C179.411 47.336 181.187 46.888 182.723 45.992C184.259 45.064 185.459 43.752 186.323 42.056C187.187 40.36 187.619 38.392 187.619 36.152C187.619 33.912 187.187 31.96 186.323 30.296C185.459 28.6 184.259 27.304 182.723 26.408C181.187 25.512 179.411 25.064 177.395 25.064C175.379 25.064 173.587 25.512 172.019 26.408C170.483 27.304 169.283 28.6 168.419 30.296C167.555 31.96 167.123 33.912 167.123 36.152ZM236.153 19.496V53H229.433V31.208L220.457 53H215.369L206.345 31.208V53H199.625V19.496H207.257L217.913 44.408L228.569 19.496H236.153ZM267.228 29.864C267.228 31.656 266.796 33.336 265.932 34.904C265.1 36.472 263.772 37.736 261.948 38.696C260.156 39.656 257.884 40.136 255.132 40.136H249.516V53H242.796V19.496H255.132C257.724 19.496 259.932 19.944 261.756 20.84C263.58 21.736 264.94 22.968 265.836 24.536C266.764 26.104 267.228 27.88 267.228 29.864ZM254.844 34.712C256.7 34.712 258.076 34.296 258.972 33.464C259.868 32.6 260.316 31.4 260.316 29.864C260.316 26.6 258.492 24.968 254.844 24.968H249.516V34.712H254.844ZM278.72 19.496V53H272V19.496H278.72Z" fill="white"/>
</svg>
